<svg xmlns="http://www.w3.org/2000/svg" version="1.1" xmlnsXlink="http://www.w3.org/1999/xlink" xmlnsSvgjs="http://svgjs.com/svgjs" width="1440" height="560" preserveAspectRatio="none" viewBox="0 0 1440 560">
    <g mask="url('#SvgjsMask1000')" fill="none">
        <rect width="1440" height="560" x="0" y="0" fill="rgba(39, 41, 45, 1)"></rect>
        <path d="M28.57 140C28.57 128.6 3.36 134.23 0 117.78C-10.93 64.23 -31.98 26.91 0 0C38.02 -31.98 70 0 140 0C210 0 210 0 280 0C350 0 350 0 420 0C490 0 490 0 560 0C630 0 630 0 700 0C770 0 770 0 840 0C910 0 910 0 980 0C1033.08 0 1049.08 -23.3 1086.15 0C1119.08 20.7 1099.53 88 1120 88C1142.12 88 1133.9 23.52 1171.33 0C1203.9 -20.48 1215.66 0 1260 0C1330 0 1330 0 1400 0C1421.88 0 1422.36 -3.8 1443.75 0C1492.36 8.62 1517.7 -7.59 1540 24.84C1565.83 62.41 1540 82.42 1540 140C1540 210 1540 210 1540 280C1540 350 1540 350 1540 420C1540 490 1575 525 1540 560C1505 595 1470 560 1400 560C1330 560 1330 560 1260 560C1190 560 1190 560 1120 560C1050 560 1050 560 980 560C910 560 910 560 840 560C770 560 770 560 700 560C645.08 560 639.98 571.63 590.15 560C569.98 555.29 576.06 527.33 560 527.33C541.77 527.33 544.8 554.58 521.57 560C474.8 570.91 470.79 560 420 560C377.54 560 356.35 586.08 335.08 560C299.25 516.08 311.54 490.71 305.79 420C300.16 350.71 322.76 338.94 312.31 280C309.87 266.22 295.91 274.55 280 274.55C272.25 274.55 268.81 273.21 265 280C227.98 345.94 214.92 346.44 198.33 420C183.35 486.44 222.09 511.45 201.86 560C192.92 581.45 170.93 560 140 560C70 560 35 595 0 560C-35 525 0 490 0 420C0 350 0 350 0 280C0 222.07 -10.8 217.06 0 164.14C3.49 147.06 28.57 151.78 28.57 140" stroke="rgba(94, 96, 100, 0.6)" stroke-width="2"></path>
        <path d="M700 122.13C687.14 122.13 679.51 130.95 679.51 140C679.51 149.22 686.95 158.67 700 158.67C757.19 158.67 820 149.14 820 140C820 130.87 757.39 122.13 700 122.13" stroke="rgba(94, 96, 100, 0.6)" stroke-width="2"></path>
        <path d="M1400 23.33C1376.8 23.33 1353.33 86.92 1353.33 140C1353.33 166.86 1376.74 183.21 1400 183.21C1423.1 183.21 1446.05 166.77 1446.05 140C1446.05 86.83 1423.16 23.33 1400 23.33" stroke="rgba(94, 96, 100, 0.6)" stroke-width="2"></path>
        <path d="M560 272.43C549.35 272.43 536.67 276.62 536.67 280C536.67 283.32 549.02 285.83 560 285.83C564.1 285.83 566.83 283.14 566.83 280C566.83 276.44 564.43 272.43 560 272.43" stroke="rgba(94, 96, 100, 0.6)" stroke-width="2"></path>
        <path d="M840 382.94C814.52 382.94 785.22 398.85 785.22 420C785.22 444.77 815.41 474.78 840 474.78C860.8 474.78 876 445.68 876 420C876 399.76 859.91 382.94 840 382.94" stroke="rgba(94, 96, 100, 0.6)" stroke-width="2"></path>
        <path d="M1400 380.51C1380.54 380.51 1365 400.14 1365 420C1365 440.15 1380.48 460.53 1400 460.53C1424.08 460.53 1452.2 440.1 1452.2 420C1452.2 400.09 1424.14 380.51 1400 380.51" stroke="rgba(94, 96, 100, 0.6)" stroke-width="2"></path>
        <path d="M100 140C100 100.1 33.53 109.16 0 62.22C-16.47 39.16 -21.54 9.57 0 0C48.46 -21.54 70 0 140 0C210 0 210 0 280 0C350 0 350 0 420 0C490 0 490 0 560 0C630 0 630 0 700 0C770 0 770 0 840 0C910 0 910 0 980 0C1013.85 0 1047.69 -19.09 1047.69 0C1047.69 36.91 1029.59 92.4 980 112C925.75 133.44 909.76 98.1 840 82.07C769.76 65.93 762.26 32.99 700 47.66C639.34 61.95 645.51 92.24 594.15 140C575.51 157.33 579.38 177.84 560 177.84C534.3 177.84 533.15 156.99 504 140C463.15 116.19 457.03 96.25 420 96.25C398.62 96.25 406.92 121.28 387.19 140C336.92 187.7 339.74 195.25 280 229.09C216.15 265.25 210 254.55 140 280C140 280 140 280 140 280C70 328.79 44.53 377.58 0 377.58C-25.47 377.58 0 328.79 0 280C0 252.24 -14.89 245.33 0 224.48C35.11 175.33 100 181.23 100 140" stroke="rgba(94, 96, 100, 0.6)" stroke-width="2"></path>
        <path d="M1165.41 140C1204.53 75.07 1190.16 58.48 1229.67 0C1237.45 -11.52 1244.84 0 1260 0C1287.57 0 1308.56 -19.76 1315.15 0C1331.9 50.24 1284.42 80.63 1306.67 140C1326.85 193.84 1353.48 226.42 1400 226.42C1446.2 226.42 1448.36 185.36 1492.11 140C1518.36 112.79 1526.51 81.29 1540 81.29C1550.45 81.29 1540 110.65 1540 140C1540 210 1540 210 1540 280C1540 350 1540 350 1540 420C1540 450 1546.76 480 1540 480C1532.52 480 1534.07 443.24 1511.53 420C1464.07 371.06 1451.58 335.64 1400 335.64C1358.43 335.64 1325.23 377.58 1325.23 420C1325.23 463.05 1356.96 470.06 1400 506.58C1439.45 540.06 1490.22 545.64 1490.22 560C1490.22 572.35 1445.11 560 1400 560C1330 560 1330 560 1260 560C1230.97 560 1227.09 571.38 1201.95 560C1157.09 539.68 1166.24 501.9 1120 496.6C1055.27 489.18 1031.79 555 980 534.55C934.79 516.7 961.45 471.42 926 420C891.45 369.88 887.56 331.47 840 331.47C779.12 331.47 709.13 369.48 709.13 420C709.13 479.18 769.38 495.18 840 550.87C858.15 565.18 886.67 557.7 886.67 560C886.67 562.26 863.34 560 840 560C770 560 770 560 700 560C672 560 665.8 574.17 644 560C595.8 528.67 604.75 469 560 469C509.22 469 509.65 523.14 452.94 560C439.65 568.64 436.47 560 420 560C406.23 560 394.28 571.5 392.46 560C383.22 501.5 387.51 487.86 397.89 420C401.28 397.86 400.22 387.47 420 380C481.28 356.85 497.46 385.69 560 358.75C613.56 335.69 606.55 319.88 652.2 280C676.55 258.73 670.72 247.58 700 236.44C764.62 211.86 770.06 222.8 840 208.57C910.06 194.32 909.27 186.2 980 179.49C1049.27 172.92 1055.7 195.7 1120 182C1148.4 175.95 1149.7 166.07 1165.41 140" stroke="rgba(94, 96, 100, 0.6)" stroke-width="2"></path>
        <path d="M1260 260.69C1251.46 260.69 1242.5 271.3 1242.5 280C1242.5 287.17 1251.38 292.44 1260 292.44C1268.13 292.44 1276 287.1 1276 280C1276 271.22 1268.21 260.69 1260 260.69" stroke="rgba(94, 96, 100, 0.6)" stroke-width="2"></path>
        <path d="M0 547.27C6.51 547.27 20 556.55 20 560C20 562.91 6.11 563.89 0 560C-3.89 557.52 -3.49 547.27 0 547.27" stroke="rgba(94, 96, 100, 0.6)" stroke-width="2"></path>
        <path d="M140 66.67C81.08 23.98 67.06 38.61 0 6.67C-2.94 5.27 -3.18 0.15 0 0C66.82 -3.18 70 0 140 0C210 0 210 0 280 0C350 0 350 0 420 0C490 0 490 0 560 0C600 0 640 -13.72 640 0C640 17.39 605.2 57.43 560 62.22C495.2 69.09 476.77 3.92 420 23.33C363.02 42.81 380.18 85.4 332.5 140C310.18 165.56 309.18 183.64 280 183.64C234.93 183.64 222.65 172.3 184 140C152.65 113.81 173.08 90.64 140 66.67" stroke="rgba(94, 96, 100, 0.6)" stroke-width="2"></path>
        <path d="M840 21.72C804.34 13.51 770 5.55 770 0C770 -5.31 805 0 840 0C910 0 910 0 980 0C994.62 0 1009.23 -8.24 1009.23 0C1009.23 15.94 1004.02 45.28 980 48.36C919.41 56.14 909.34 37.69 840 21.72" stroke="rgba(94, 96, 100, 0.6)" stroke-width="2"></path>
        <path d="M1538.16 140C1538.16 138.66 1539.48 137.74 1540 137.74C1540.4 137.74 1540 138.87 1540 140C1540 143.89 1540.45 147.78 1540 147.78C1539.53 147.78 1538.16 143.68 1538.16 140" stroke="rgba(94, 96, 100, 0.6)" stroke-width="2"></path>
        <path d="M840 280C840.84 248.46 909.9 271.86 980 269.23C1049.9 266.61 1051.64 264.69 1120 269.5C1128.21 270.08 1126.31 275.09 1133.13 280C1196.31 325.45 1203.96 318.72 1260 370.22C1280.12 388.72 1285.45 393.79 1285.45 420C1285.45 465.35 1290.85 511.36 1260 513.33C1208.13 516.64 1195.23 453.37 1120 430.57C1055.23 410.94 1047.48 433.43 980 428.48C975.48 428.15 979.21 423.4 976 420C909.21 349.16 838.84 323.84 840 280" stroke="rgba(94, 96, 100, 0.6)" stroke-width="2"></path>
        <path d="M1376 280C1376 274.73 1387.66 269.63 1400 269.63C1417.92 269.63 1436.52 274.72 1436.52 280C1436.52 285.29 1417.9 290.77 1400 290.77C1387.64 290.77 1376 285.3 1376 280" stroke="rgba(94, 96, 100, 0.6)" stroke-width="2"></path>
        <path d="M697.85 560C697.85 557.72 698.23 553.91 700 553.91C702.35 553.91 706.09 558.22 706.09 560C706.09 561.26 703.05 560 700 560C698.92 560 697.85 560.76 697.85 560" stroke="rgba(94, 96, 100, 0.6)" stroke-width="2"></path>
        <path d="M1353.33 560C1353.33 558.15 1377.37 552.63 1400 552.63C1406.93 552.63 1412.44 558.02 1412.44 560C1412.44 561.7 1406.22 560 1400 560C1376.66 560 1353.33 561.83 1353.33 560" stroke="rgba(94, 96, 100, 0.6)" stroke-width="2"></path>
    </g>
    <defs>
        <mask id="SvgjsMask1000">
            <rect width="1440" height="560" fill="#ffffff"></rect>
        </mask>
    </defs>
</svg>